<?xml version="1.0" encoding="UTF-8" standalone="no"?>
<!-- Created with Inkscape (http://www.inkscape.org/) -->

<svg
   width="221.94055mm"
   height="210.33086mm"
   viewBox="0 0 221.94055 210.33086"
   version="1.1"
   id="svg1"
   xml:space="preserve"
   inkscape:version="1.4.3 (fcd0343856, 2026-01-01)"
   sodipodi:docname="runapp.svg"
   xmlns:inkscape="http://www.inkscape.org/namespaces/inkscape"
   xmlns:sodipodi="http://sodipodi.sourceforge.net/DTD/sodipodi-0.0.dtd"
   xmlns="http://www.w3.org/2000/svg"
   xmlns:svg="http://www.w3.org/2000/svg"><sodipodi:namedview
     id="namedview1"
     pagecolor="#505050"
     bordercolor="#ffffff"
     borderopacity="1"
     inkscape:showpageshadow="0"
     inkscape:pageopacity="0"
     inkscape:pagecheckerboard="1"
     inkscape:deskcolor="#505050"
     inkscape:document-units="mm"
     showgrid="false"
     inkscape:zoom="0.50137688"
     inkscape:cx="286.21184"
     inkscape:cy="332.08552"
     inkscape:window-width="1728"
     inkscape:window-height="937"
     inkscape:window-x="0"
     inkscape:window-y="0"
     inkscape:window-maximized="1"
     inkscape:current-layer="svg1" /><defs
     id="defs1"><filter
       inkscape:label="Translucent"
       inkscape:menu="Bevels"
       inkscape:menu-tooltip="Illuminated translucent plastic or glass effect"
       x="-0.24475274"
       y="-0.27386137"
       width="1.4895055"
       height="1.5477227"
       style="color-interpolation-filters:sRGB"
       id="filter161"><feBlend
         in2="SourceGraphic"
         mode="screen"
         result="result1"
         id="feBlend156" /><feGaussianBlur
         stdDeviation="8"
         result="result6"
         id="feGaussianBlur156" /><feComposite
         operator="xor"
         in="result6"
         in2="SourceGraphic"
         id="feComposite156" /><feGaussianBlur
         stdDeviation="5"
         result="result2"
         id="feGaussianBlur157" /><feComposite
         operator="atop"
         in2="result1"
         result="result92"
         id="feComposite157" /><feComposite
         operator="xor"
         in="result2"
         result="result4"
         in2="result92"
         id="feComposite158" /><feGaussianBlur
         stdDeviation="1"
         result="result3"
         in="result4"
         id="feGaussianBlur158" /><feSpecularLighting
         surfaceScale="3"
         specularConstant="1.5"
         specularExponent="45"
         result="result5"
         id="feSpecularLighting158"><fePointLight
           x="-5000"
           y="-8000"
           z="20000"
           id="fePointLight158" /></feSpecularLighting><feComposite
         operator="in"
         in2="SourceGraphic"
         result="result93"
         id="feComposite159" /><feComposite
         operator="arithmetic"
         k2="1"
         k3="2"
         in="result3"
         in2="result93"
         result="result94"
         id="feComposite160"
         k1="0"
         k4="0" /><feComposite
         operator="atop"
         in="result5"
         in2="result94"
         result="result95"
         id="feComposite161" /><feBlend
         mode="screen"
         in2="result95"
         id="feBlend161" /></filter><filter
       inkscape:label="Blur Double"
       inkscape:menu="Blurs"
       inkscape:menu-tooltip="Overlays two copies with different blur amounts and modifiable blend and composite"
       style="color-interpolation-filters:sRGB"
       id="filter13"
       x="-0.060760247"
       y="-0.064547004"
       width="1.1215205"
       height="1.129094"><feGaussianBlur
         stdDeviation="5"
         result="fbSourceGraphic"
         id="feGaussianBlur12" /><feGaussianBlur
         stdDeviation="0.01"
         in="SourceGraphic"
         result="result1"
         id="feGaussianBlur13" /><feComposite
         in2="result1"
         operator="arithmetic"
         in="fbSourceGraphic"
         k2="0.5"
         k3="0.5"
         result="result2"
         id="feComposite13"
         k1="0"
         k4="0" /><feBlend
         in2="fbSourceGraphic"
         mode="normal"
         result="result3"
         id="feBlend13" /></filter></defs><ellipse
     style="fill:#000000;stroke-width:0.264999;filter:url(#filter13)"
     id="path11"
     cy="105.16543"
     cx="110.97028"
     rx="98.946274"
     ry="93.141426" /><g
     inkscape:label="Layer 1"
     inkscape:groupmode="layer"
     id="layer1"
     transform="translate(6.7468626,4.6360068)"><g
       id="g145"
       style="filter:url(#filter161)"
       transform="translate(4.2217078,20.580826)"><path
         style="fill:#ffcc00"
         d="m 41.824073,82.81088 c -0.625251,-0.31234 -1.128847,-0.87149 -1.550415,-1.72143 -0.70544,-1.42227 -0.645501,-2.40826 0.234061,-3.85033 0.982011,-1.61003 1.20562,-1.63772 13.222603,-1.63772 12.016983,0 12.240592,0.0277 13.222603,1.63772 0.879562,1.44207 0.939501,2.42806 0.234061,3.85033 -1.104321,2.22647 -0.842937,2.18404 -13.456664,2.18404 -9.924143,0 -11.069274,-0.0445 -11.906249,-0.46261 z m -7.9375,-15.875 c -0.625251,-0.31234 -1.128846,-0.87149 -1.550415,-1.72143 -0.70544,-1.42227 -0.645501,-2.40826 0.234062,-3.85033 0.98201,-1.61002 1.205619,-1.63772 13.222602,-1.63772 12.016983,0 12.240593,0.0277 13.222603,1.63772 0.879563,1.44207 0.939501,2.42806 0.234061,3.85033 -1.10432,2.22647 -0.842937,2.18404 -13.456664,2.18404 -9.924142,0 -11.069273,-0.0445 -11.906249,-0.46261 z m 7.9375,-15.875 c -0.625251,-0.31234 -1.128847,-0.87149 -1.550415,-1.72143 -0.70544,-1.42227 -0.645501,-2.40826 0.234061,-3.85033 0.982011,-1.61002 1.20562,-1.63772 13.222603,-1.63772 12.016983,0 12.240592,0.0277 13.222603,1.63772 0.879562,1.44207 0.939501,2.42806 0.234061,3.85033 -1.104321,2.22647 -0.842937,2.18404 -13.456664,2.18404 -9.924143,0 -11.069274,-0.0445 -11.906249,-0.46261 z"
         id="path15" /><path
         style="fill:#ff6600"
         d="m 90.96834,139.95356 c -4.24532,-1.65963 -6.190931,-6.41557 -4.31173,-10.5397 0.59627,-1.30857 2.2574,-3.08435 12.18603,-13.02713 l 11.49564,-11.51202 -9.64499,-9.63878 C 90.24513,84.79451 89.99554,84.47995 89.76587,81.46438 c -0.0807,-1.05998 0.0476,-1.88637 0.47266,-3.04271 0.55535,-1.51094 1.21408,-2.21972 13.65952,-14.697176 7.19181,-7.21031 12.99248,-13.1932 12.89038,-13.29531 -0.10211,-0.1021 -0.0153,-0.18564 0.19285,-0.18564 0.20818,0 1.9842,-1.61545 3.9467,-3.58988 4.33131,-4.35763 5.18735,-4.91584 7.79536,-5.08321 2.60503,-0.16719 4.25409,0.39543 5.90834,2.01574 2.47539,2.42461 2.69679,3.56062 2.69679,13.83721 v 7.90139 h 12.69717 c 11.81689,0 12.78853,0.0347 14.01518,0.50081 2.00449,0.76164 3.32157,1.95118 4.2512,3.83954 2.08451,4.23424 0.16758,9.090256 -4.2512,10.769256 -1.24441,0.47284 -2.28563,0.50081 -18.64255,0.50081 -16.35693,0 -17.39815,-0.028 -18.64256,-0.50081 -2.01007,-0.76376 -3.3212,-1.95045 -4.25843,-3.85422 -0.74752,-1.51844 -0.84099,-1.98839 -0.97532,-4.903946 l -0.14856,-3.22457 -6.30861,6.304496 -6.3086,6.3045 9.51073,9.52842 c 10.70238,10.72229 10.89254,10.97238 10.89254,14.32487 0,3.44509 0.20174,3.20201 -16.3583,19.71049 -13.90814,13.86484 -14.85201,14.74993 -16.29459,15.27969 -1.86923,0.68644 -3.86325,0.70424 -5.53823,0.0494 z m 55.35597,-99.121326 c -2.86147,-0.74851 -5.19023,-2.40991 -6.83922,-4.8793 -4.49542,-6.73194 -0.93921,-15.85308 6.96095,-17.85378 4.78854,-1.21269 9.75413,0.72606 12.53832,4.89541 4.49541,6.73195 0.9392,15.85309 -6.96095,17.85379 -1.93546,0.49015 -3.78365,0.48492 -5.6991,-0.0161 z M 102.8665,23.609984 c 0.1819,-0.0734 0.47955,-0.0734 0.66146,0 0.1819,0.0734 0.0331,0.13345 -0.33073,0.13345 -0.36381,0 -0.51263,-0.06 -0.33073,-0.13345 z"
         id="path14" /><path
         style="fill:#aa4400"
         d="m 43.347707,139.95065 c -3.096903,-1.21068 -5.002103,-3.98817 -5.002103,-7.29231 0,-3.59781 -1.350263,-2.07758 27.137985,-30.55403 C 90.29253,77.30563 91.00256,76.62248 90.37076,78.15951 c -0.80646,1.96192 -0.83518,3.60912 -0.0978,5.60714 0.47712,1.29276 1.07471,2.04839 3.83646,4.85108 1.79922,1.82589 3.2713,3.43543 3.2713,3.57676 0,0.14132 -10.5668,10.8075 -23.481769,23.7026 -22.381499,22.34706 -23.55352,23.4719 -25.013049,24.00605 -1.869762,0.68429 -3.86557,0.70141 -5.538232,0.0475 z m 35.718748,-79.375 c -3.096903,-1.21068 -5.002103,-3.98817 -5.002103,-7.29231 0,-3.41669 0.0864,-3.52499 13.315908,-16.69195 7.6678,-7.63154 12.07398,-11.82628 12.7432,-12.13168 2.31539,-1.05663 5.60767,-0.91941 7.51506,0.31322 3.33506,2.15526 24.91423,17.27459 24.40266,17.0976 -0.3638,-0.12587 -1.67349,-0.22885 -2.91042,-0.22885 -2.96287,0 -3.61658,0.3994 -8.19841,5.00907 -1.9625,1.97444 -3.71894,3.58989 -3.90318,3.58989 -0.18424,0 -3.04339,-1.95471 -6.35367,-4.3438 l -6.0187,-4.34379 -9.26041,9.20251 c -8.55569,8.50218 -9.376957,9.24552 -10.791703,9.76775 -1.868428,0.68969 -3.859751,0.70851 -5.538232,0.0523 z"
         id="path13" /></g></g></svg>